<svg version="1.1" viewBox="0.0 0.0 1000.0 500.0" fill="none" stroke="none" stroke-linecap="square" stroke-miterlimit="10" xmlns:xlink="http://www.w3.org/1999/xlink" xmlns="http://www.w3.org/2000/svg"><clipPath id="g2bde2e27dea_0_0.0"><path d="m0 0l1000.0 0l0 500.0l-1000.0 0l0 -500.0z" clip-rule="nonzero"/></clipPath><g clip-path="url(#g2bde2e27dea_0_0.0)"><path fill="#000000" fill-opacity="0.0" d="m0 0l1000.0 0l0 500.0l-1000.0 0z" fill-rule="evenodd"/><path fill="#000000" fill-opacity="0.0" d="m247.3517 188.73885l730.29926 0l0 122.5197l-730.29926 0z" fill-rule="evenodd"/><path fill="#ff9e67" d="m317.4767 311.6237q-16.609375 0 -29.828125 -7.15625q-13.21875 -7.15625 -20.90625 -21.03125q-7.6875 -13.875 -7.6875 -33.984375q0 -20.265625 7.796875 -34.171875q7.8125 -13.921875 21.078125 -21.03125q13.265625 -7.125 29.546875 -7.125q11.3125 0 20.875 3.0625q9.5625 3.046875 16.796875 8.90625q7.25 5.84375 11.71875 14.390625q4.484375 8.546875 5.625 19.53125l-33.375 0q-0.484375 -3.90625 -2.078125 -7.078125q-1.578125 -3.171875 -4.1875 -5.453125q-2.59375 -2.28125 -6.21875 -3.5q-3.625 -1.21875 -8.1875 -1.21875q-8.21875 0 -13.953125 4.03125q-5.734375 4.03125 -8.671875 11.5625q-2.921875 7.515625 -2.921875 18.09375q0 11.078125 3.0 18.5625q3.015625 7.484375 8.671875 11.234375q5.65625 3.734375 13.71875 3.734375q4.5625 0 8.140625 -1.21875q3.578125 -1.21875 6.265625 -3.5q2.6875 -2.28125 4.34375 -5.453125q1.671875 -3.171875 2.25 -7.078125l33.359375 0q-0.578125 7.734375 -4.28125 15.796875q-3.6875 8.046875 -10.578125 14.890625q-6.875 6.828125 -16.921875 11.015625q-10.046875 4.1875 -23.390625 4.1875zm68.2728 -1.625l0 -121.25l87.390625 0l0 26.53125l-54.515625 0l0 20.5l49.96875 0l0 25.875l-49.96875 0l0 21.8125l54.203125 0l0 26.53125l-87.078125 0zm98.06329 0l39.296875 -121.25l44.921875 0l40.765625 121.25l-37.265625 0l-14.078125 -47.03125q-4.5625 -15.296875 -8.546875 -31.78125q-3.984375 -16.484375 -7.5625 -32.75l7.484375 0q-3.421875 16.265625 -6.921875 32.75q-3.5 16.484375 -7.890625 31.78125l-13.421875 47.03125l-36.78125 0zm29.125 -23.265625l0 -24.578125l66.734375 0l0 24.578125l-66.734375 0zm152.0086 24.734375q-15.78125 0 -27.546875 -4.671875q-11.75 -4.6875 -18.265625 -14.453125q-6.515625 -9.765625 -6.59375 -24.984375l31.25 0q0.328125 5.53125 2.796875 9.359375q2.484375 3.828125 7.0 5.78125q4.53125 1.953125 10.875 1.953125q5.28125 0 8.859375 -1.296875q3.59375 -1.3125 5.421875 -3.625q1.828125 -2.328125 1.828125 -5.34375q0 -2.765625 -1.75 -4.828125q-1.75 -2.078125 -5.734375 -3.78125q-3.984375 -1.71875 -10.75 -3.09375l-12.203125 -2.609375q-16.03125 -3.421875 -25.265625 -11.671875q-9.234375 -8.265625 -9.234375 -22.5q0 -11.5625 6.265625 -20.21875q6.265625 -8.671875 17.28125 -13.515625q11.03125 -4.84375 25.4375 -4.84375q14.734375 0 25.4375 4.921875q10.703125 4.921875 16.515625 13.84375q5.8125 8.90625 5.890625 20.78125l-31.5625 0q-0.40625 -5.9375 -4.359375 -9.234375q-3.9375 -3.296875 -11.921875 -3.296875q-5.046875 0 -8.296875 1.1875q-3.25 1.171875 -4.796875 3.296875q-1.546875 2.109375 -1.546875 4.796875q0 2.84375 1.65625 5.0q1.671875 2.15625 5.296875 3.75q3.625 1.578125 9.3125 2.796875l9.9375 2.125q10.0 2.109375 17.203125 5.609375q7.203125 3.5 11.796875 8.1875q4.609375 4.671875 6.765625 10.53125q2.15625 5.859375 2.15625 12.765625q0 11.96875 -5.90625 20.3125q-5.90625 8.34375 -16.890625 12.65625q-10.984375 4.3125 -26.359375 4.3125zm52.900635 -1.46875l39.296875 -121.25l44.921875 0l40.765625 121.25l-37.265625 0l-14.078125 -47.03125q-4.5625 -15.296875 -8.546875 -31.78125q-3.984375 -16.484375 -7.5625 -32.75l7.484375 0q-3.421875 16.265625 -6.921875 32.75q-3.5 16.484375 -7.890625 31.78125l-13.421875 47.03125l-36.78125 0zm29.125 -23.265625l0 -24.578125l66.734375 0l0 24.578125l-66.734375 0zm107.4162 23.265625l0 -121.25l52.25 0q13.5 0 23.625 4.921875q10.140625 4.921875 15.796875 14.15625q5.65625 9.234375 5.65625 22.09375q0 13.03125 -5.78125 21.984375q-5.78125 8.9375 -16.203125 13.5q-10.40625 4.5625 -24.234375 4.5625l-31.25 0l0 -25.5625l24.578125 0q5.859375 0 10.0 -1.453125q4.15625 -1.46875 6.34375 -4.640625q2.203125 -3.171875 2.203125 -8.390625q0 -5.203125 -2.203125 -8.453125q-2.1875 -3.265625 -6.34375 -4.8125q-4.140625 -1.546875 -10.0 -1.546875l-11.5625 0l0 94.890625l-32.875 0zm65.59375 0l-29.625 -55.65625l34.984375 0l30.4375 55.65625l-35.796875 0z" fill-rule="nonzero"/><path fill="#ff9e67" d="m64.98944 322.9629l0 0c-26.294785 -26.29477 -34.15957 -65.83737 -19.924797 -100.17795c14.234772 -34.340576 47.763702 -56.711273 84.94283 -56.674347c37.179123 0.03692627 70.68117 22.474182 84.87471 56.842987c14.193527 34.368805 6.281296 73.89572 -20.045029 100.138275l-23.909744 -23.986053c16.621399 -16.56845 21.614578 -41.52646 12.649841 -63.22908c-8.964737 -21.702606 -30.120636 -35.87265 -53.596756 -35.898666c-23.476105 -0.026000977 -44.645744 14.097137 -53.631554 35.77986c-8.985817 21.682724 -4.0168686 46.65178 12.588409 63.257065z" fill-rule="evenodd"/><path fill="#ff9e67" d="m88.64376 258.001l0 0c0 -22.814163 18.49453 -41.3087 41.308693 -41.3087l0 0c10.955734 0 21.462769 4.3521576 29.20964 12.099045c7.746887 7.746872 12.099045 18.253906 12.099045 29.209656l0 0c0 22.814148 -18.494537 41.308685 -41.308685 41.308685l0 0c-22.814163 0 -41.308693 -18.494537 -41.308693 -41.308685z" fill-rule="evenodd"/><path fill="#ff9e67" d="m113.10218 265.9517l0 0c0 -1.5258789E-4 1.2207031E-4 -2.746582E-4 2.822876E-4 -2.746582E-4l33.700256 2.746582E-4c7.6293945E-5 0 1.373291E-4 3.0517578E-5 1.9836426E-4 9.1552734E-5c4.5776367E-5 3.0517578E-5 7.6293945E-5 1.2207031E-4 7.6293945E-5 1.8310547E-4l-2.746582E-4 57.21405c0 1.5258789E-4 -1.2207031E-4 2.746582E-4 -2.89917E-4 2.746582E-4l-33.70025 -2.746582E-4l0 0c-1.5258789E-4 0 -2.822876E-4 -1.5258789E-4 -2.822876E-4 -3.0517578E-4z" fill-rule="evenodd"/></g></svg>